<svg width="644" height="168" viewBox="0 0 644 168" fill="none" xmlns="http://www.w3.org/2000/svg">
<path d="M262.514 107.7L240.737 166.753H222.399L201.278 107.7H217.487L227.802 140.72C228.093 141.629 228.548 143.23 229.167 145.523C229.822 147.779 230.659 150.726 231.677 154.364C231.823 153.855 232.114 152.836 232.551 151.308C233.024 149.78 233.533 148.106 234.079 146.287C234.624 144.467 235.097 142.939 235.498 141.702L246.468 107.7H262.514Z" fill="#221F20"/>
<path d="M280.173 140.174C280.173 145.923 281.228 150.271 283.338 153.218C285.485 156.129 288.523 157.584 292.453 157.584C295.145 157.584 297.347 157.002 299.057 155.838C300.803 154.637 302.022 152.872 302.713 150.544L317.176 151.799C312.992 162.496 304.496 167.845 291.689 167.845C282.811 167.845 275.988 165.225 271.222 159.986C266.456 154.71 264.072 147.033 264.072 136.954C264.072 127.203 266.492 119.707 271.331 114.468C276.17 109.229 283.029 106.609 291.907 106.609C300.385 106.609 306.861 109.429 311.337 115.068C315.812 120.672 318.05 128.895 318.05 139.737V140.174H280.173ZM303.205 130.568C302.913 125.802 301.767 122.236 299.766 119.871C297.765 117.47 295.072 116.269 291.689 116.269C288.087 116.269 285.303 117.524 283.338 120.035C281.41 122.546 280.391 126.057 280.282 130.568H303.205Z" fill="#221F20"/>
<path d="M341.712 135.098V166.753H326.376V120.908C326.376 117.743 326.321 115.159 326.212 113.158C326.139 111.121 326.048 109.301 325.939 107.7H340.566C340.639 108.137 340.73 109.174 340.839 110.811C340.948 112.412 341.039 114.068 341.112 115.778C341.221 117.452 341.276 118.67 341.276 119.435H341.494C343.568 114.923 346.169 111.648 349.299 109.611C352.428 107.573 356.157 106.554 360.487 106.554C366.745 106.554 371.548 108.483 374.895 112.339C378.243 116.196 379.917 121.836 379.917 129.259V166.753H364.635V133.625C364.635 128.422 363.762 124.528 362.015 121.945C360.269 119.362 357.631 118.07 354.101 118.07C350.39 118.07 347.388 119.671 345.096 122.873C342.84 126.038 341.712 130.114 341.712 135.098Z" fill="#221F20"/>
<path d="M419.407 165.88C415.695 167.117 411.384 167.736 406.472 167.736C401.96 167.736 398.485 166.517 396.048 164.079C393.61 161.605 392.391 157.875 392.391 152.891V118.07H384.914V107.7H393.155L397.958 93.8377H407.563V107.7H418.752V118.07H407.563V148.743C407.563 151.617 408.109 153.746 409.201 155.128C410.292 156.475 411.984 157.148 414.276 157.148C415.368 157.148 417.078 156.893 419.407 156.384V165.88Z" fill="#221F20"/>
<path d="M462.772 155.019C460.734 159.495 458.133 162.751 454.967 164.789C451.838 166.826 448.109 167.845 443.779 167.845C437.521 167.845 432.718 165.935 429.37 162.114C426.023 158.257 424.349 152.618 424.349 145.195V107.7H439.686V140.829C439.686 145.996 440.559 149.889 442.305 152.509C444.052 155.092 446.672 156.384 450.164 156.384C453.876 156.384 456.859 154.801 459.115 151.635C461.407 148.433 462.554 144.34 462.554 139.355V107.7H477.89V153.546C477.89 156.056 477.926 158.421 477.999 160.641C478.072 162.824 478.181 164.861 478.327 166.753H463.7C463.481 164.134 463.318 161.841 463.209 159.877C463.099 157.912 463.045 156.293 463.045 155.019H462.772Z" fill="#221F20"/>
<path d="M505.537 137.773V166.753H490.2V121.563C490.2 118.325 490.146 115.632 490.037 113.486C489.964 111.303 489.873 109.374 489.764 107.7H504.391C504.463 108.028 504.536 108.756 504.609 109.883C504.682 111.011 504.754 112.285 504.827 113.704C504.9 115.087 504.955 116.396 504.991 117.634C505.064 118.871 505.1 119.762 505.1 120.308H505.318C506.774 116.233 508.102 113.304 509.303 111.521C510.467 109.811 511.849 108.555 513.45 107.755C515.051 106.955 517.053 106.554 519.454 106.554C521.419 106.554 523.002 106.827 524.202 107.373V120.199C521.764 119.653 519.581 119.38 517.653 119.38C513.832 119.38 510.849 120.926 508.702 124.019C506.592 127.112 505.537 131.696 505.537 137.773Z" fill="#221F20"/>
<path d="M543.062 140.174C543.062 145.923 544.117 150.271 546.228 153.218C548.374 156.129 551.412 157.584 555.342 157.584C558.035 157.584 560.236 157.002 561.946 155.838C563.692 154.637 564.911 152.872 565.603 150.544L580.066 151.799C575.881 162.496 567.385 167.845 554.578 167.845C545.7 167.845 538.878 165.225 534.111 159.986C529.345 154.71 526.962 147.033 526.962 136.954C526.962 127.203 529.381 119.707 534.221 114.468C539.06 109.229 545.918 106.609 554.796 106.609C563.274 106.609 569.751 109.429 574.226 115.068C578.701 120.672 580.939 128.895 580.939 139.737V140.174H543.062ZM566.094 130.568C565.803 125.802 564.657 122.236 562.655 119.871C560.654 117.47 557.962 116.269 554.578 116.269C550.976 116.269 548.192 117.524 546.228 120.035C544.299 122.546 543.28 126.057 543.171 130.568H566.094Z" fill="#221F20"/>
<path d="M639.04 149.507C639.04 155.219 636.693 159.713 632 162.987C627.342 166.226 620.884 167.845 612.624 167.845C604.511 167.845 598.289 166.571 593.959 164.024C589.666 161.441 586.809 157.439 585.39 152.017L598.871 149.998C599.635 152.8 600.945 154.783 602.801 155.947C604.693 157.111 607.967 157.693 612.624 157.693C616.918 157.693 620.047 157.148 622.012 156.056C623.977 154.965 624.959 153.254 624.959 150.926C624.959 149.034 624.159 147.542 622.558 146.45C620.993 145.323 618.319 144.377 614.535 143.612C611.66 143.03 609.077 142.466 606.785 141.921C604.529 141.375 602.582 140.847 600.945 140.338C599.344 139.792 598.034 139.283 597.015 138.81C593.995 137.318 591.685 135.408 590.084 133.079C588.519 130.75 587.737 127.876 587.737 124.456C587.737 118.816 589.902 114.432 594.232 111.303C598.598 108.137 604.765 106.554 612.734 106.554C619.756 106.554 625.396 107.919 629.653 110.648C633.946 113.376 636.62 117.324 637.676 122.491L624.086 123.91C623.649 121.509 622.576 119.726 620.866 118.561C619.156 117.361 616.445 116.76 612.734 116.76C609.095 116.76 606.366 117.233 604.547 118.179C602.728 119.089 601.818 120.635 601.818 122.818C601.818 124.528 602.509 125.893 603.892 126.912C605.311 127.894 607.676 128.713 610.987 129.368C615.608 130.314 619.701 131.296 623.267 132.315C626.869 133.297 629.762 134.48 631.945 135.862C634.092 137.245 635.802 139.028 637.075 141.211C638.385 143.358 639.04 146.123 639.04 149.507Z" fill="#221F20"/>
<path d="M253.65 68.6044V80H205.399V68.9379L233.694 31.1379H207.678V19.8535H250.926V31.0267L222.798 68.6044H253.65Z" fill="#221F20"/>
<path d="M313.105 67.1591V80H258.295V69.1603C259.666 66.1585 261.408 63.2308 263.52 60.3773C265.633 57.4867 268.153 54.5961 271.08 51.7055C274.045 48.7779 277.417 45.7761 281.197 42.7002C283.94 40.4767 286.274 38.457 288.201 36.6411C290.128 34.7882 291.629 33.139 292.704 31.6938C293.816 30.2485 294.65 28.8217 295.206 27.4135C295.761 25.9682 296.039 24.5599 296.039 23.1887C296.039 19.7793 295.168 17.2223 293.427 15.5176C291.722 13.8129 289.165 12.9605 285.756 12.9605C282.42 12.9605 279.863 13.8684 278.084 15.6843C276.343 17.4632 275.212 20.1499 274.693 23.7446L258.962 22.8552C259.851 15.5917 262.557 10.0514 267.078 6.23432C271.636 2.41726 277.825 0.508728 285.644 0.508728C294.094 0.508728 300.579 2.43579 305.1 6.28991C309.621 10.144 311.882 15.5546 311.882 22.5217C311.882 26.4499 311.067 29.9705 309.436 33.0835C307.806 36.1964 305.73 39.0685 303.21 41.6996C301.135 43.9602 298.782 46.1096 296.151 48.1479C293.556 50.1861 291.036 52.1688 288.591 54.0958C285.996 56.1711 283.625 58.265 281.475 60.3773C279.363 62.4897 277.788 64.7503 276.75 67.1591H313.105Z" fill="#221F20"/>
<path d="M374.45 68.382V80H321.474V68.382H340.875V14.9617L322.086 26.6908V14.4058L341.708 1.67608H356.495V68.382H374.45Z" fill="#221F20"/>
<rect y="2" width="164.793" height="164.793" fill="#DE5126"/>
<g clip-path="url(#clip0_1788_64)">
<path d="M82.3963 115.295C90.9449 115.295 97.8456 122.196 97.8456 130.744H128.744C128.744 105.133 108.008 84.3964 82.3963 84.3964C56.7848 84.3964 36.0483 105.133 36.0483 130.744H66.947C66.947 122.196 73.8477 115.295 82.3963 115.295Z" fill="white"/>
<path d="M36.0483 38.0484V68.947H82.3963V84.3964L97.8456 68.947L128.744 38.0484H36.0483Z" fill="white"/>
</g>
<defs>
<clipPath id="clip0_1788_64">
<rect width="92.6959" height="92.6959" fill="white" transform="translate(36.0483 38.0484)"/>
</clipPath>
</defs>
</svg>
